<svg version="1.2" baseProfile="tiny-ps" xmlns="http://www.w3.org/2000/svg" viewBox="0 0 898 607" width="898" height="607">
	<title>undraw_content_re_33px-svg</title>
	<style>
		tspan { white-space:pre }
		.s0 { fill: #f2f2f2 } 
		.s1 { fill: #cccccc } 
		.s2 { fill: #ffffff } 
		.s3 { fill: #ffb8b8 } 
		.s4 { fill: #0a4c7e } 
		.s5 { fill: #2f2e41 } 
		.s6 { fill: #3f3d56 } 
	</style>
	<path id="Layer" class="s0" d="m888.33 0c1.15 0 2.28 0.23 3.34 0.66c1.06 0.44 2.02 1.08 2.83 1.89c0.81 0.81 1.45 1.77 1.89 2.83c0.44 1.06 0.67 2.19 0.67 3.34v411.32c0 0.28-0.01 0.57-0.04 0.85c-0.03 0.28-0.07 0.56-0.12 0.84c-0.06 0.28-0.12 0.55-0.21 0.82c-0.08 0.27-0.18 0.54-0.29 0.8c-0.08 0.19-0.16 0.38-0.25 0.56c-0.09 0.18-0.19 0.36-0.29 0.54c-0.1 0.18-0.22 0.35-0.33 0.52c-0.12 0.17-0.24 0.33-0.37 0.49c-0.01 0.02-0.03 0.04-0.04 0.06c-0.02 0.02-0.03 0.04-0.05 0.06c-0.02 0.02-0.03 0.04-0.05 0.06c-0.02 0.02-0.03 0.04-0.05 0.06c-0.41 0.48-0.87 0.91-1.37 1.29c-0.5 0.38-1.04 0.7-1.61 0.97c-0.57 0.26-1.17 0.46-1.78 0.6c-0.61 0.13-1.24 0.2-1.87 0.2h-453.82v-185.63c0-1.97-0.39-3.92-1.15-5.74c-0.75-1.82-1.86-3.47-3.25-4.86c-1.39-1.39-3.05-2.5-4.86-3.25c-1.82-0.75-3.77-1.14-5.74-1.15h-146.9l0-219.41c0-1.14 0.23-2.28 0.67-3.34c0.44-1.06 1.08-2.02 1.89-2.83c0.81-0.81 1.77-1.45 2.83-1.89c1.06-0.44 2.19-0.66 3.34-0.67h607l0 0z" />
	<path id="Layer" class="s1" d="m273.85 34.95h621.96v2.49h-621.96v-2.49z" />
	<path id="Layer" class="s1" d="m295.04 26.18c-4.14 0-7.48-3.34-7.48-7.48c0-4.14 3.34-7.48 7.48-7.48c4.14 0 7.48 3.34 7.48 7.48c0 4.14-3.34 7.48-7.48 7.48z" />
	<path id="Layer" class="s1" d="m316.54 26.18c-4.14 0-7.48-3.34-7.48-7.48c0-4.14 3.34-7.48 7.48-7.48c4.14 0 7.48 3.34 7.48 7.48c0 4.14-3.34 7.48-7.48 7.48z" />
	<path id="Layer" class="s1" d="m338.04 26.18c-4.14 0-7.48-3.34-7.48-7.48c0-4.14 3.34-7.48 7.48-7.48c4.14 0 7.48 3.34 7.48 7.48c0 4.14-3.34 7.48-7.48 7.48z" />
	<path id="Layer" fill-rule="evenodd" class="s1" d="m750.02 93.19c2.44 2.44 3.81 5.74 3.81 9.19c0 3.45-1.37 6.75-3.81 9.19c-2.44 2.44-5.74 3.81-9.19 3.81h-312c-3.45 0-6.75-1.37-9.19-3.81c-2.44-2.44-3.81-5.74-3.81-9.19c0-3.45 1.37-6.75 3.81-9.19c2.44-2.44 5.74-3.81 9.19-3.81h312c3.45 0 6.75 1.37 9.19 3.81zm-1.41 16.97c2.06-2.06 3.22-4.86 3.22-7.78c0-2.92-1.16-5.72-3.22-7.78c-2.06-2.06-4.86-3.22-7.78-3.22h-312c-2.92 0-5.72 1.16-7.78 3.22c-2.06 2.06-3.22 4.86-3.22 7.78c0 2.92 1.16 5.72 3.22 7.78c2.06 2.06 4.86 3.22 7.78 3.22h312c2.92 0 5.72-1.16 7.78-3.22z" />
	<path id="Layer" class="s2" d="m845.49 196.76c2.44 2.44 3.81 5.74 3.81 9.19c0 3.45-1.37 6.75-3.81 9.19c-2.44 2.44-5.74 3.81-9.19 3.81h-312c-3.45 0-6.75-1.37-9.19-3.81c-2.44-2.44-3.81-5.74-3.81-9.19c0-3.45 1.37-6.75 3.81-9.19c2.44-2.44 5.74-3.81 9.19-3.81h312c3.45 0 6.75 1.37 9.19 3.81z" />
	<path id="Layer" class="s2" d="m845.49 244.76c2.44 2.44 3.81 5.74 3.81 9.19c0 3.45-1.37 6.75-3.81 9.19c-2.44 2.44-5.74 3.81-9.19 3.81h-312c-3.45 0-6.75-1.37-9.19-3.81c-2.44-2.44-3.81-5.74-3.81-9.19c0-3.45 1.37-6.75 3.81-9.19c2.44-2.44 5.74-3.81 9.19-3.81h312c3.45 0 6.75 1.37 9.19 3.81z" />
	<path id="Layer" class="s2" d="m845.49 292.76c2.44 2.44 3.81 5.74 3.81 9.19c0 3.45-1.37 6.75-3.81 9.19c-2.44 2.44-5.74 3.81-9.19 3.81h-312c-3.45 0-6.75-1.37-9.19-3.81c-2.44-2.44-3.81-5.74-3.81-9.19c0-3.45 1.37-6.75 3.81-9.19c2.44-2.44 5.74-3.81 9.19-3.81h312c3.45 0 6.75 1.37 9.19 3.81z" />
	<path id="Layer" class="s1" d="m473.88 171.45c1.51 0 3 0.3 4.4 0.88c1.39 0.58 2.66 1.42 3.73 2.49c1.07 1.07 1.91 2.33 2.49 3.73c0.58 1.39 0.88 2.89 0.88 4.4v142.02c0 1.51-0.3 3-0.88 4.4c-0.58 1.39-1.42 2.66-2.49 3.73c-1.07 1.07-2.33 1.91-3.73 2.49c-1.39 0.58-2.89 0.88-4.4 0.88h-39.37v-2h39.37c1.25 0 2.48-0.25 3.63-0.72c1.15-0.48 2.2-1.18 3.08-2.06c0.88-0.88 1.58-1.93 2.06-3.08c0.48-1.15 0.72-2.38 0.72-3.63v-142.02c0-1.25-0.25-2.48-0.72-3.63c-0.48-1.15-1.18-2.2-2.06-3.08c-0.88-0.88-1.93-1.58-3.08-2.06c-1.15-0.48-2.38-0.72-3.63-0.72h-142.02c-1.25 0-2.48 0.25-3.63 0.73c-1.15 0.48-2.2 1.18-3.08 2.06c-0.88 0.88-1.58 1.93-2.06 3.08c-0.48 1.15-0.72 2.38-0.73 3.63v45.19h-2v-45.19c0-1.51 0.3-3 0.88-4.39c0.58-1.39 1.42-2.66 2.49-3.73c1.07-1.07 2.33-1.91 3.73-2.49c1.39-0.58 2.89-0.88 4.39-0.88h142.02h0z" />
	<path id="Layer" class="s3" d="m105.62 317.57c-0.5 0.02-21.91-1.46-22.46-1.48l1.92-19.2l12.19-0.37l23.3-43.16c-3.23-6.16 0.75-14.34 7.6-15.6c13.81-3.14 18.56 18.59 4.7 21.49l-19.27 52.73c-0.3 0.81-0.72 1.57-1.25 2.26c-0.53 0.69-1.16 1.29-1.87 1.78c-0.71 0.5-1.49 0.88-2.32 1.14c-0.83 0.26-1.69 0.4-2.55 0.4h0z" />
	<path id="Layer" class="s4" d="m49.18 327.46c-20.37 0.05-22.16-30.74-1.74-32.91c53.99-3.26 47.16-16.82 51.26 23.18c0.06 0.59 0.01 1.18-0.16 1.75c-0.17 0.57-0.44 1.09-0.81 1.55c-0.37 0.46-0.83 0.84-1.35 1.13c-0.52 0.28-1.09 0.46-1.67 0.53l-43.75 4.68c-0.15 0.02-0.29 0.03-0.44 0.04c-0.15 0.01-0.29 0.02-0.44 0.03c-0.15 0.01-0.29 0.01-0.44 0.02c-0.15 0-0.3 0.01-0.44 0.01z" />
	<path id="Layer" class="s3" d="m44.53 230.11c28.06 15.97 5.02 58.11-23.56 43.1c-28.06-15.97-5.02-58.11 23.56-43.1z" />
	<path id="Layer" class="s3" d="m70.05 592.82l0-47.29l18.09 0l-5.83 47.29l-12.26 0v0z" />
	<path id="Layer" class="s5" d="m67.42 589.32c12.61 0.73 38.38-5 38.53 14.89l-38.53 0l0-14.89z" />
	<path id="Layer" class="s3" d="m17.05 592.82l0-47.29l18.09 0l-5.83 47.29l-12.26 0v0z" />
	<path id="Layer" class="s5" d="m14.42 589.32c12.61 0.73 38.38-5 38.53 14.89l-38.53 0l0-14.89z" />
	<path id="Layer" class="s5" d="m30.98 576.31c-2.96-0.81-19.06 1.65-20.96-1.58c-6.64-66.51-5.16-131.6 9.57-167.37l50.65-3.1c11.33 20.68 37.36 157.87 21.66 166.22l-20.19 0.72c-0.57 0.02-1.14-0.06-1.69-0.23c-0.54-0.17-1.06-0.44-1.51-0.78c-0.46-0.35-0.85-0.77-1.16-1.25c-0.31-0.48-0.54-1.01-0.68-1.56l-16.89-96.12c-4.21-5.88-12.48 101.22-13.84 100.82c-0.09 0.59-0.28 1.15-0.57 1.67c-0.29 0.52-0.66 0.98-1.11 1.37c-0.45 0.39-0.96 0.69-1.52 0.89c-0.56 0.2-1.14 0.31-1.74 0.31z" />
	<path id="Layer" class="s4" d="m17.98 415.76c-25.57-26.75-9.26-98.48-10.09-96.95c0.07-1.76 5.86-28.82 20.84-33.26c11.89-3.92 25.04 7.81 26.67 19.68l17.81 105.15c0.05 0.29 0.06 0.57 0.04 0.86c-0.02 0.29-0.08 0.57-0.16 0.85c-0.09 0.28-0.21 0.54-0.36 0.79c-0.15 0.25-0.33 0.48-0.53 0.68c0.88 2.73-52.97 1.65-54.22 2.2z" />
	<path id="Layer" class="s5" d="m29.66 270.75c3.72 3.4 0.56 7.14-3.67 5.3c-23.91-6.65-42.08-57.03-4.19-54.14c3.39-2.62 7.2-4.21 11.68-3.66c18.97 1.04 40.13 6.87 19.54 26.64c-7.28 3.54-15.2-5.95-22.08-2.03c-1.31 2.22-2.41 4.65-4.66 6.07c-8.15 5.54-1.77 16.41 3.38 21.81z" />
	<path id="Layer" fill-rule="evenodd" class="s6" d="m419.51 226.13c2.23 0 4.44 0.45 6.5 1.3c2.06 0.86 3.93 2.11 5.51 3.69c1.58 1.58 2.83 3.45 3.69 5.51c0.86 2.06 1.3 4.27 1.3 6.5v346c0 2.23-0.45 4.44-1.3 6.5c-0.86 2.06-2.11 3.93-3.69 5.51c-1.58 1.58-3.45 2.83-5.51 3.69c-2.06 0.86-4.27 1.3-6.5 1.3h-274c-2.23 0-4.44-0.45-6.5-1.3c-2.06-0.86-3.93-2.11-5.51-3.69c-1.58-1.58-2.83-3.45-3.69-5.51c-0.86-2.06-1.3-4.27-1.3-6.5v-346c0-2.23 0.45-4.44 1.3-6.5c0.86-2.06 2.11-3.93 3.69-5.51c1.58-1.58 3.45-2.83 5.51-3.69c2.06-0.86 4.27-1.3 6.5-1.3l274 0zm15 17c0-1.97-0.39-3.92-1.15-5.74c-0.75-1.82-1.86-3.47-3.25-4.86c-1.39-1.39-3.05-2.5-4.86-3.25c-1.82-0.75-3.77-1.14-5.74-1.15h-274c-1.97 0-3.92 0.39-5.74 1.15c-1.82 0.75-3.47 1.86-4.86 3.25c-1.39 1.39-2.5 3.05-3.25 4.86c-0.75 1.82-1.14 3.77-1.15 5.74v346c0 1.97 0.39 3.92 1.15 5.74c0.75 1.82 1.86 3.47 3.25 4.86c1.39 1.39 3.05 2.5 4.86 3.25c1.82 0.75 3.77 1.14 5.74 1.15h274c1.97 0 3.92-0.39 5.74-1.15c1.82-0.75 3.47-1.86 4.86-3.25c1.39-1.39 2.5-3.05 3.25-4.86c0.75-1.82 1.14-3.77 1.15-5.74v-346z" />
	<path id="Layer" class="s3" d="m68.31 371.73c-9.03 1.02-13-19.99-16.45-25.35l17.98-6.98l5.85 10.7l49.03 1.22c0.07-0.1 0.15-0.2 0.22-0.29c0.08-0.1 0.15-0.19 0.23-0.28c0.08-0.09 0.16-0.19 0.24-0.28c0.08-0.09 0.17-0.18 0.25-0.27h0c9.72-10.18 25.56 5.07 15.87 15.23c-1.07 1.14-2.37 2.03-3.81 2.63c-1.44 0.6-2.99 0.88-4.55 0.84c-1.56-0.05-3.09-0.42-4.49-1.1c-1.4-0.68-2.65-1.65-3.65-2.85c-1.21 0.09-55.56 6.81-56.74 6.77z" />
	<path id="Layer" class="s4" d="m54.99 361.7c-3.01 2.9-26.09-37.77-27.78-38.92c-11.66-18.13 15.8-36.03 27.66-18l24 36.88c0.32 0.5 0.54 1.05 0.65 1.63c0.11 0.58 0.1 1.18-0.02 1.76c-0.12 0.58-0.36 1.13-0.69 1.61c-0.33 0.49-0.76 0.9-1.26 1.23c-1.09 0.51-21.79 14.92-22.56 13.82z" />
	<path id="Layer" class="s1" d="m365.51 465.63h-166c-16.96-0.08-17.03-25.91 0-26h166c16.95 0.08 17.04 25.91 0 26z" />
	<path id="Layer" class="s1" d="m365.51 513.63h-166c-16.96-0.08-17.03-25.91 0-26h166c16.95 0.08 17.04 25.91 0 26z" />
	<path id="Layer" class="s1" d="m365.51 561.63h-166c-16.96-0.08-17.03-25.91 0-26h166c16.95 0.08 17.04 25.91 0 26z" />
	<path id="Layer" class="s4" d="m427.51 258.13c-10.52 0-20-6.33-24.02-16.05c-4.02-9.72-1.8-20.9 5.64-28.33c7.44-7.44 18.62-9.66 28.33-5.64c9.72 4.02 16.05 13.5 16.05 24.02c0 3.41-0.68 6.79-1.99 9.95c-1.31 3.15-3.22 6.02-5.64 8.43c-2.41 2.41-5.28 4.33-8.43 5.64c-3.15 1.31-6.53 1.98-9.95 1.99h0z" />
	<path id="Layer" class="s2" d="m435.21 222c0.26-0.02 0.53 0.06 0.73 0.24c0.2 0.17 0.33 0.42 0.35 0.68c0.02 0.26-0.06 0.53-0.24 0.73l-7.13 8.38l9.52 8.1c0.2 0.17 0.33 0.42 0.35 0.68c0.02 0.26-0.06 0.53-0.24 0.73c-0.17 0.2-0.42 0.33-0.68 0.35c-0.26 0.02-0.53-0.06-0.73-0.24l-9.52-8.1l-7.13 8.38c-0.17 0.2-0.42 0.33-0.68 0.35c-0.26 0.02-0.53-0.06-0.73-0.24c-0.2-0.17-0.33-0.42-0.35-0.68c-0.02-0.26 0.06-0.53 0.24-0.73l7.13-8.38l-9.52-8.1c-0.2-0.17-0.33-0.42-0.35-0.68c-0.02-0.26 0.06-0.53 0.24-0.73c0.17-0.2 0.42-0.33 0.68-0.35c0.26-0.02 0.53 0.06 0.73 0.24l9.52 8.1l7.13-8.38c0.17-0.2 0.42-0.33 0.68-0.35z" />
	<path id="Layer" class="s4" d="m362.51 408.43h-160c-2.17 0-4.31-0.43-6.31-1.26c-2-0.83-3.82-2.05-5.35-3.58c-1.53-1.53-2.75-3.35-3.58-5.35c-0.83-2-1.26-4.15-1.26-6.31v-89.6c0-2.17 0.43-4.31 1.26-6.31c0.83-2 2.05-3.82 3.58-5.35c1.53-1.53 3.35-2.75 5.35-3.58c2-0.83 4.15-1.26 6.31-1.26h160c2.17 0 4.31 0.43 6.31 1.26c2 0.83 3.82 2.05 5.35 3.58c1.53 1.53 2.75 3.35 3.58 5.35c0.83 2 1.26 4.15 1.26 6.31v89.6c0 2.17-0.43 4.31-1.26 6.31c-0.83 2-2.05 3.82-3.58 5.35c-1.53 1.53-3.35 2.75-5.35 3.58c-2 0.83-4.15 1.26-6.31 1.26h0z" />
</svg>